<svg xmlns="http://www.w3.org/2000/svg" width="756" height="756" viewBox="0 0 567 567"><defs><clipPath id="a"><path d="M87.102 11.363h306.77v485.313H87.101Zm0 0"/></clipPath><clipPath id="b"><path d="M257.086 47.7c-36.149 38.038-72.133 76.218-108.594 113.921-18.265 18.914-19.222 38.04-7.027 59.918 9.824 17.645 24.508 29.621 43.488 36.195 18.102 6.29 33.832 2.391 47.078-11.691 24.125-25.559 48.27-51.043 72.563-76.434 3.992-4.16 8.465-8.082 13.246-11.336 6.98-4.73 13.7-2.796 20.726 1.27 8.657 5.02 13.868 11.094 10.926 21.469-.906 3.324-2.293 6.933-4.543 9.37-34.547 37.54-69.668 74.552-104.695 111.657-17.5 18.55-35.266 36.89-52.383 55.8-13.008 14.372-12.098 34.192-4.016 51.192 7.051 14.871 18.29 28.09 32.993 35.504 19.297 9.754 39.355 7.41 56.21-5.715 27.087-21.113 49.465-50.925 72.922-76.03 7.149-7.65 15.372-15.853 25.844-16.4 12.168-.671 23.262 11.618 21.399 23.669-1.266 8.03-7.055 14.511-12.602 20.464-19.125 20.54-38.254 41.102-57.379 61.637-16.496 17.742-33.472 36.078-58.004 41.914-32.633 7.746-65.363-6.004-89.656-27.52-23.644-20.945-47.914-54.011-43.703-87.171 3.371-26.586 19.937-50.04 38.8-68.188 5.79-5.57 6.313-7.77-1.218-10.59-20.32-7.558-36.578-20.73-51.211-36.128-21.496-22.543-33.352-48.965-30.008-80.547 1.27-12.004 5.953-23.121 12.625-33.52 14.13-22.02 34.164-38.683 51.594-57.668 22.379-24.363 45.547-48.058 68.379-71.988 9.324-9.805 20.754-11.43 32.133-4.688 10.617 6.29 12.793 22.524 4.113 31.68"/></clipPath><clipPath id="c"><path d="M174 69h305.898v486H174Zm0 0"/></clipPath><clipPath id="d"><path d="M416.629 127.266c10.21 16.52 17.144 36.484 17.621 56.328.55 23.312-8.918 39.14-23 56.594-4.758 5.878-10.809 10.734-16.328 16.019-3.277 3.129-4.235 5.809.883 8.078 25.843 11.5 49.586 28.668 65.773 52.434 16.977 24.984 23.598 58.097 11.738 86.597-11.644 27.997-38.132 48.055-58.003 70.051-22.184 24.555-45.735 47.985-68.543 71.942-9.301 9.777-20.801 11.379-32.16 4.613-10.329-6.168-12.79-22.426-4.54-31.152 35.668-37.512 71.008-75.407 107.254-112.395 22.352-22.832 20.965-44.062 4.973-68.258-9.899-14.969-23.98-24.676-40.934-30.27-17.476-5.761-32.61-1.769-45.281 11.548-24.625 25.988-49.203 52.027-73.95 77.894-3.85 4.02-8.25 7.652-12.862 10.785-8.512 5.762-19.989.645-25.368-5.738-7.984-9.492-7.746-21.328 1.41-30.246 35.696-34.762 68.977-71.844 103.57-107.66 23.696-24.532 69.505-57.356 58.028-97.309-7.293-25.293-31.437-45.496-56.781-51.043-16.738-3.66-29.863 3.488-41.219 15.633-25.68 27.473-52.027 54.324-77.562 81.937-7.84 8.489-20.871 7.938-29.262 1.243-6.55-5.211-11.762-18.77-4.52-27.852 1.41-1.746 2.438-3.828 3.946-5.43 24.746-26.73 49.3-53.699 74.476-80.047 13.055-13.648 27.828-25.367 46.98-29.765 44.708-10.207 89.704 16.762 113.66 55.469"/></clipPath></defs><g clip-path="url(#a)"><g clip-path="url(#b)"><path d="M75.738 0h415.524v566.473H75.738Zm0 0" style="stroke:none;fill-rule:nonzero;fill:currentColor;fill-opacity:1"/></g></g><g clip-path="url(#c)"><g clip-path="url(#d)"><path d="M75.738 0h415.524v566.473H75.738Zm0 0" style="stroke:none;fill-rule:nonzero;fill:currentColor;fill-opacity:1"/></g></g></svg>