<svg xmlns="http://www.w3.org/2000/svg" xmlns:xlink="http://www.w3.org/1999/xlink" width="756" zoomAndPan="magnify" viewBox="0 0 567 567.000005" height="756" preserveAspectRatio="xMidYMid meet" version="1.2"><defs><clipPath id="d23a3f5c7b"><path d="M 87.101562 11.363281 L 393.871094 11.363281 L 393.871094 496.675781 L 87.101562 496.675781 Z M 87.101562 11.363281 "/></clipPath><clipPath id="32c222d336"><path d="M 257.085938 47.699219 C 220.9375 85.738281 184.953125 123.917969 148.492188 161.621094 C 130.226562 180.535156 129.269531 199.660156 141.464844 221.539062 C 151.289062 239.183594 165.972656 251.160156 184.953125 257.734375 C 203.054688 264.023438 218.785156 260.125 232.03125 246.042969 C 256.15625 220.484375 280.300781 195 304.59375 169.609375 C 308.585938 165.449219 313.058594 161.527344 317.839844 158.273438 C 324.820312 153.542969 331.539062 155.476562 338.566406 159.542969 C 347.222656 164.5625 352.433594 170.636719 349.492188 181.011719 C 348.585938 184.335938 347.199219 187.945312 344.949219 190.382812 C 310.402344 227.921875 275.28125 264.933594 240.253906 302.039062 C 222.753906 320.589844 204.988281 338.929688 187.871094 357.839844 C 174.863281 372.210938 175.773438 392.03125 183.855469 409.03125 C 190.90625 423.902344 202.144531 437.121094 216.847656 444.535156 C 236.144531 454.289062 256.203125 451.945312 273.058594 438.820312 C 300.144531 417.707031 322.523438 387.894531 345.980469 362.789062 C 353.128906 355.140625 361.351562 346.9375 371.824219 346.390625 C 383.992188 345.71875 395.085938 358.007812 393.222656 370.058594 C 391.957031 378.089844 386.167969 384.570312 380.621094 390.523438 C 361.496094 411.0625 342.367188 431.625 323.242188 452.160156 C 306.746094 469.902344 289.769531 488.238281 265.238281 494.074219 C 232.605469 501.820312 199.875 488.070312 175.582031 466.554688 C 151.9375 445.609375 127.667969 412.542969 131.878906 379.382812 C 135.25 352.796875 151.816406 329.34375 170.679688 311.195312 C 176.46875 305.625 176.992188 303.425781 169.460938 300.605469 C 149.140625 293.046875 132.882812 279.875 118.25 264.476562 C 96.753906 241.933594 84.898438 215.511719 88.242188 183.929688 C 89.511719 171.925781 94.195312 160.808594 100.867188 150.410156 C 114.996094 128.390625 135.03125 111.726562 152.460938 92.742188 C 174.839844 68.378906 198.007812 44.683594 220.839844 20.753906 C 230.164062 10.949219 241.59375 9.324219 252.972656 16.066406 C 263.589844 22.355469 265.765625 38.589844 257.085938 47.746094 "/></clipPath><clipPath id="0b68e5d86d"><path d="M 174 69 L 479.898438 69 L 479.898438 555 L 174 555 Z M 174 69 "/></clipPath><clipPath id="0e8bab8d77"><path d="M 416.628906 127.265625 C 426.839844 143.785156 433.773438 163.75 434.25 183.59375 C 434.800781 206.90625 425.332031 222.734375 411.25 240.1875 C 406.492188 246.066406 400.441406 250.921875 394.921875 256.207031 C 391.644531 259.335938 390.6875 262.015625 395.804688 264.285156 C 421.648438 275.785156 445.390625 292.953125 461.578125 316.71875 C 478.554688 341.703125 485.175781 374.816406 473.316406 403.316406 C 461.671875 431.3125 435.183594 451.371094 415.3125 473.367188 C 393.128906 497.921875 369.578125 521.351562 346.769531 545.308594 C 337.46875 555.085938 325.96875 556.6875 314.609375 549.921875 C 304.28125 543.753906 301.820312 527.496094 310.070312 518.769531 C 345.738281 481.257812 381.078125 443.363281 417.324219 406.375 C 439.675781 383.542969 438.289062 362.3125 422.296875 338.117188 C 412.398438 323.148438 398.316406 313.441406 381.363281 307.847656 C 363.886719 302.085938 348.753906 306.078125 336.082031 319.394531 C 311.457031 345.382812 286.878906 371.421875 262.132812 397.289062 C 258.28125 401.308594 253.882812 404.941406 249.269531 408.074219 C 240.757812 413.835938 229.28125 408.71875 223.902344 402.335938 C 215.917969 392.84375 216.15625 381.007812 225.3125 372.089844 C 261.007812 337.328125 294.289062 300.246094 328.882812 264.429688 C 352.578125 239.898438 398.386719 207.074219 386.910156 167.121094 C 379.617188 141.828125 355.472656 121.625 330.128906 116.078125 C 313.390625 112.417969 300.265625 119.566406 288.910156 131.710938 C 263.230469 159.183594 236.882812 186.035156 211.347656 213.648438 C 203.507812 222.136719 190.476562 221.585938 182.085938 214.890625 C 175.535156 209.679688 170.324219 196.121094 177.566406 187.039062 C 178.976562 185.292969 180.003906 183.210938 181.511719 181.609375 C 206.257812 154.878906 230.8125 127.910156 255.988281 101.5625 C 269.042969 87.914062 283.816406 76.195312 302.96875 71.796875 C 347.675781 61.589844 392.671875 88.558594 416.628906 127.265625 "/></clipPath></defs><g id="fb599c78d2"><g clip-rule="nonzero" clip-path="url(#d23a3f5c7b)"><g clip-rule="nonzero" clip-path="url(#32c222d336)"><path style=" stroke:none;fill-rule:nonzero;fill:currentColor;fill-opacity:1;" d="M 75.738281 0 L 491.261719 0 L 491.261719 566.472656 L 75.738281 566.472656 Z M 75.738281 0 "/></g></g><g clip-rule="nonzero" clip-path="url(#0b68e5d86d)"><g clip-rule="nonzero" clip-path="url(#0e8bab8d77)"><path style=" stroke:none;fill-rule:nonzero;fill:currentColor;fill-opacity:1;" d="M 75.738281 0 L 491.261719 0 L 491.261719 566.472656 L 75.738281 566.472656 Z M 75.738281 0 "/></g></g><g style="fill:currentColor;fill-opacity:1;"><g transform="translate(319.601815, 408.160034)"><path style="stroke:none" d=""/></g></g><g style="fill:currentColor;fill-opacity:1;"><g transform="translate(327.173245, 408.160034)"><path style="stroke:none" d=""/></g></g><g style="fill:currentColor;fill-opacity:1;"><g transform="translate(334.744676, 408.160034)"><path style="stroke:none" d=""/></g></g><g style="fill:currentColor;fill-opacity:1;"><g transform="translate(342.316107, 408.160034)"><path style="stroke:none" d=""/></g></g><g style="fill:currentColor;fill-opacity:1;"><g transform="translate(349.887538, 408.160034)"><path style="stroke:none" d=""/></g></g><g style="fill:currentColor;fill-opacity:1;"><g transform="translate(357.458969, 408.160034)"><path style="stroke:none" d=""/></g></g></g></svg>